<svg width="51" height="53" viewBox="0 0 51 53" fill="none" xmlns="http://www.w3.org/2000/svg">
<path d="M23.7155 2.19701C24.0654 0.197926 26.9346 0.197922 27.2845 2.197L28.8096 10.9122C29.9379 17.3596 35.0188 22.3892 41.4774 23.452L49.1372 24.7124C51.1604 25.0454 51.1604 27.9546 49.1372 28.2876L41.4774 29.548C35.0188 30.6108 29.9379 35.6404 28.8096 42.0878L27.2845 50.803C26.9346 52.8021 24.0654 52.8021 23.7155 50.803L22.1904 42.0878C21.0621 35.6404 15.9812 30.6108 9.52264 29.548L1.86281 28.2876C-0.160439 27.9546 -0.160429 25.0454 1.86282 24.7124L9.52265 23.452C15.9812 22.3892 21.0621 17.3596 22.1904 10.9122L23.7155 2.19701Z" fill="#AE93C8" fill-opacity="0.3"/>
<path d="M23.7155 2.19701C24.0654 0.197926 26.9346 0.197922 27.2845 2.197L28.8096 10.9122C29.9379 17.3596 35.0188 22.3892 41.4774 23.452L49.1372 24.7124C51.1604 25.0454 51.1604 27.9546 49.1372 28.2876L41.4774 29.548C35.0188 30.6108 29.9379 35.6404 28.8096 42.0878L27.2845 50.803C26.9346 52.8021 24.0654 52.8021 23.7155 50.803L22.1904 42.0878C21.0621 35.6404 15.9812 30.6108 9.52264 29.548L1.86281 28.2876C-0.160439 27.9546 -0.160429 25.0454 1.86282 24.7124L9.52265 23.452C15.9812 22.3892 21.0621 17.3596 22.1904 10.9122L23.7155 2.19701Z" fill="#FDE5B8" fill-opacity="0.1"/>
<path d="M23.8633 2.22266C24.1843 0.389366 26.8157 0.389366 27.1367 2.22266L28.6621 10.9385C29.8016 17.4485 34.9318 22.5265 41.4531 23.5996L49.1133 24.8604C50.9684 25.166 50.9684 27.834 49.1133 28.1396L41.4531 29.4004C34.9318 30.4735 29.8016 35.5515 28.6621 42.0615L27.1367 50.7773C26.8157 52.6106 24.1843 52.6106 23.8633 50.7773L22.3379 42.0615C21.1984 35.5515 16.0682 30.4735 9.54688 29.4004L1.88672 28.1396C0.031561 27.834 0.03156 25.166 1.88672 24.8604L9.54688 23.5996C16.0682 22.5265 21.1984 17.4485 22.3379 10.9385L23.8633 2.22266Z" stroke="white" stroke-opacity="0.01" stroke-width="0.3"/>
</svg>
