<svg width="33" height="35" viewBox="0 0 33 35" fill="none" xmlns="http://www.w3.org/2000/svg">
<path d="M14.7155 2.197C15.0654 0.197918 17.9346 0.197921 18.2845 2.197L18.4548 3.17025C19.5831 9.61767 24.6713 14.6484 31.1298 15.7112C33.1531 16.0442 33.1531 18.9558 31.1298 19.2888C24.6713 20.3516 19.5831 25.3823 18.4548 31.8298L18.2845 32.803C17.9346 34.8021 15.0654 34.8021 14.7155 32.803L14.5452 31.8298C13.4169 25.3823 8.32872 20.3516 1.87018 19.2888C-0.153075 18.9558 -0.153075 16.0442 1.87018 15.7112C8.32872 14.6484 13.4169 9.61767 14.5452 3.17024L14.7155 2.197Z" fill="#FBC662" fill-opacity="0.5"/>
</svg>
