<svg width="18" height="18" viewBox="0 0 18 18" fill="none" xmlns="http://www.w3.org/2000/svg">
<path d="M7.9748 0.858274C8.17579 -0.290218 9.82421 -0.290214 10.0252 0.858278L10.0725 1.12868C10.6924 4.67084 13.4838 7.43404 17.0321 8.01793C18.1436 8.20085 18.1436 9.79915 17.0321 9.98207C13.4838 10.566 10.6924 13.3292 10.0725 16.8713L10.0252 17.1417C9.82421 18.2902 8.17579 18.2902 7.9748 17.1417L7.92748 16.8713C7.3076 13.3292 4.51621 10.566 0.967941 9.98207C-0.143617 9.79915 -0.143617 8.20085 0.967941 8.01793C4.51621 7.43404 7.3076 4.67084 7.92748 1.12868L7.9748 0.858274Z" fill="#AE93C8" fill-opacity="0.3"/>
<path d="M8.06445 0.874023C8.24781 -0.173713 9.75219 -0.173717 9.93555 0.874023L9.98242 1.14453C10.609 4.72488 13.431 7.51821 17.0176 8.1084C18.0266 8.27482 18.0266 9.72518 17.0176 9.8916C13.431 10.4818 10.609 13.2751 9.98242 16.8555L9.93555 17.126C9.75219 18.1737 8.24781 18.1737 8.06445 17.126L8.01758 16.8555C7.39098 13.2751 4.56896 10.4818 0.982422 9.8916C-0.0266374 9.72518 -0.0266375 8.27482 0.982422 8.1084C4.56896 7.51821 7.39098 4.72488 8.01758 1.14453L8.06445 0.874023Z" stroke="white" stroke-opacity="0.01" stroke-width="0.182609"/>
</svg>
