<svg width="24" height="25" viewBox="0 0 24 25" fill="none" xmlns="http://www.w3.org/2000/svg">
<g clip-path="url(#clip0_9544_2305)">
<path d="M4.44645 18.7055C4.46918 18.8013 4.51107 18.8916 4.56959 18.9708C4.62812 19.0501 4.70207 19.1167 4.78699 19.1666C4.87192 19.2165 4.96606 19.2487 5.06376 19.2613C5.16146 19.2739 5.2607 19.2666 5.3555 19.2398C9.70217 18.0397 14.2927 18.0392 18.6396 19.2385C18.7344 19.2653 18.8336 19.2726 18.9313 19.26C19.0289 19.2474 19.123 19.2152 19.2079 19.1653C19.2928 19.1154 19.3668 19.0489 19.4253 18.9697C19.4838 18.8905 19.5257 18.8003 19.5485 18.7045L21.8717 8.83185C21.9028 8.69968 21.8964 8.56146 21.8531 8.43274C21.8099 8.30403 21.7316 8.18993 21.6271 8.10331C21.5225 8.01669 21.3958 7.96099 21.2613 7.94247C21.1268 7.92395 20.9898 7.94336 20.8658 7.9985L16.2553 10.0476C16.0888 10.1216 15.9006 10.1306 15.7278 10.0728C15.5551 10.015 15.4102 9.89466 15.3217 9.73541L12.6372 4.90337C12.5741 4.7897 12.4817 4.69498 12.3696 4.62904C12.2575 4.56309 12.1299 4.52832 11.9998 4.52832C11.8698 4.52832 11.7421 4.56309 11.6301 4.62904C11.518 4.69498 11.4256 4.7897 11.3624 4.90337L8.67797 9.73541C8.58949 9.89466 8.4446 10.015 8.27183 10.0728C8.09905 10.1306 7.9109 10.1216 7.74442 10.0476L3.13322 7.99819C3.00917 7.94306 2.87219 7.92365 2.73771 7.94215C2.60322 7.96065 2.47657 8.01632 2.37202 8.10291C2.26746 8.18949 2.18915 8.30354 2.1459 8.43221C2.10266 8.56089 2.09619 8.69909 2.12723 8.83124L4.44645 18.7055Z" fill="#08758B"/>
<path d="M4.44645 18.7055C4.46918 18.8013 4.51107 18.8916 4.56959 18.9708C4.62812 19.0501 4.70207 19.1167 4.78699 19.1666C4.87192 19.2165 4.96606 19.2487 5.06376 19.2613C5.16146 19.2739 5.2607 19.2666 5.3555 19.2398C9.70217 18.0397 14.2927 18.0392 18.6396 19.2385C18.7344 19.2653 18.8336 19.2726 18.9313 19.26C19.0289 19.2474 19.123 19.2152 19.2079 19.1653C19.2928 19.1154 19.3668 19.0489 19.4253 18.9697C19.4838 18.8905 19.5257 18.8003 19.5485 18.7045L21.8717 8.83185C21.9028 8.69968 21.8964 8.56146 21.8531 8.43274C21.8099 8.30403 21.7316 8.18993 21.6271 8.10331C21.5225 8.01669 21.3958 7.96099 21.2613 7.94247C21.1268 7.92395 20.9898 7.94336 20.8658 7.9985L16.2553 10.0476C16.0888 10.1216 15.9006 10.1306 15.7278 10.0728C15.5551 10.015 15.4102 9.89466 15.3217 9.73541L12.6372 4.90337C12.5741 4.7897 12.4817 4.69498 12.3696 4.62904C12.2575 4.56309 12.1299 4.52832 11.9998 4.52832C11.8698 4.52832 11.7421 4.56309 11.6301 4.62904C11.518 4.69498 11.4256 4.7897 11.3624 4.90337L8.67797 9.73541C8.58949 9.89466 8.4446 10.015 8.27183 10.0728C8.09905 10.1306 7.9109 10.1216 7.74442 10.0476L3.13322 7.99819C3.00917 7.94306 2.87219 7.92365 2.73771 7.94215C2.60322 7.96065 2.47657 8.01632 2.37202 8.10291C2.26746 8.18949 2.18915 8.30354 2.1459 8.43221C2.10266 8.56089 2.09619 8.69909 2.12723 8.83124L4.44645 18.7055Z" stroke="#08758B" stroke-linecap="round" stroke-linejoin="round"/>
<circle cx="1.79159" cy="7.40169" r="1.45833" fill="#08758B"/>
<ellipse cx="11.9998" cy="3.02669" rx="1.45833" ry="1.45833" fill="#08758B"/>
<ellipse cx="22.2083" cy="7.40169" rx="1.45833" ry="1.45833" fill="#08758B"/>
</g>
<defs>
<clipPath id="clip0_9544_2305">
<rect width="23.3333" height="23.3333" fill="white" transform="translate(0.333252 0.839355)"/>
</clipPath>
</defs>
</svg>
