<svg width="24" height="25" viewBox="0 0 24 25" fill="none" xmlns="http://www.w3.org/2000/svg">
<path d="M6.8501 5.40586C6.8501 4.90195 7.05028 4.41868 7.40659 4.06236C7.76291 3.70604 8.24619 3.50586 8.7501 3.50586H16.2501C16.754 3.50586 17.2373 3.70604 17.5936 4.06236C17.9499 4.41868 18.1501 4.90195 18.1501 5.40586V10.1559C18.1501 11.9195 17.4495 13.611 16.2024 14.8581C14.9552 16.1052 14.2638 16.8059 12.5001 16.8059C10.7364 16.8059 10.045 16.1052 8.79784 14.8581C7.55072 13.611 6.8501 11.9195 6.8501 10.1559V5.40586ZM9.81161 20.6206C9.25812 21.4162 9.82747 22.5059 10.7967 22.5059H14.2035C15.1728 22.5059 15.7421 21.4162 15.1886 20.6206L12.5001 16.7559L9.81161 20.6206Z" fill="#DD7B0A"/>
<path d="M5.85 5.40576H4.9C4.39609 5.40576 3.91282 5.60594 3.5565 5.96226C3.20018 6.31858 3 6.80185 3 7.30576V8.48281C2.99999 9.17344 3.18819 9.85102 3.54437 10.4427C3.90056 11.0344 4.41127 11.5178 5.0216 11.8411L6.325 12.5308M19.15 5.40576H20.1C20.6039 5.40576 21.0872 5.60594 21.4435 5.96226C21.7998 6.31858 22 6.80185 22 7.30576V7.91091C22.0001 8.77424 21.7648 9.62126 21.3196 10.3609C20.8744 11.1006 20.2359 11.7049 19.473 12.109L18.675 12.5308" fill="#DD7B0A"/>
</svg>
