<svg width="30" height="32" viewBox="0 0 30 32" fill="none" xmlns="http://www.w3.org/2000/svg">
<g filter="url(#filter0_d_9370_13554)">
<path d="M12.6667 6.67253L12.0647 8.29886C11.276 10.4315 10.8817 11.4979 10.1035 12.276C9.32533 13.0542 8.259 13.4485 6.12633 14.2372L4.5 14.8392L6.12633 15.4412C8.259 16.2299 9.32533 16.6254 10.1035 17.4024C10.8817 18.1794 11.276 19.2469 12.0647 21.3795L12.6667 23.0059L13.2687 21.3795C14.0573 19.2469 14.4528 18.1805 15.2298 17.4024C16.0068 16.6242 17.0743 16.2299 19.207 15.4412L20.8333 14.8392L19.207 14.2372C17.0743 13.4485 16.008 13.0542 15.2298 12.276C14.4517 11.4979 14.0573 10.4315 13.2687 8.29886L12.6667 6.67253ZM22 2.00586L21.7422 2.70236C21.4038 3.61703 21.2347 4.07436 20.9022 4.40686C20.5685 4.74053 20.1112 4.90969 19.1965 5.24686L18.5 5.50586L19.1977 5.76369C20.1112 6.10203 20.5685 6.27119 20.901 6.60369C21.2347 6.93736 21.4038 7.39469 21.741 8.30936L22 9.00586L22.2578 8.30936C22.5962 7.39469 22.7653 6.93736 23.0978 6.60486C23.4315 6.27119 23.8888 6.10203 24.8035 5.76486L25.5 5.50586L24.8023 5.24803C23.8888 4.90969 23.4315 4.74053 23.099 4.40803C22.7653 4.07436 22.5962 3.61703 22.259 2.70236L22 2.00586Z" fill="#1F75FB" stroke="#1F75FB" stroke-linecap="round" stroke-linejoin="round"/>
</g>
<defs>
<filter id="filter0_d_9370_13554" x="-1" y="0.505859" width="32" height="32" filterUnits="userSpaceOnUse" color-interpolation-filters="sRGB">
<feFlood flood-opacity="0" result="BackgroundImageFix"/>
<feColorMatrix in="SourceAlpha" type="matrix" values="0 0 0 0 0 0 0 0 0 0 0 0 0 0 0 0 0 0 127 0" result="hardAlpha"/>
<feOffset dy="4"/>
<feGaussianBlur stdDeviation="2"/>
<feComposite in2="hardAlpha" operator="out"/>
<feColorMatrix type="matrix" values="0 0 0 0 0.945098 0 0 0 0 0.321569 0 0 0 0 0.137255 0 0 0 0.06 0"/>
<feBlend mode="normal" in2="BackgroundImageFix" result="effect1_dropShadow_9370_13554"/>
<feBlend mode="normal" in="SourceGraphic" in2="effect1_dropShadow_9370_13554" result="shape"/>
</filter>
</defs>
</svg>
