<svg width="48" height="48" viewBox="0 0 48 48" fill="none" xmlns="http://www.w3.org/2000/svg">
<rect width="48" height="48" rx="24" fill="#D4ECFF"/>
<g filter="url(#filter0_d_11647_6947)">
<path d="M23.9785 14C26.3461 14 28.4387 15.4621 29.2109 17.6279C29.2922 17.8466 29.2715 18.0853 29.1699 18.2939C29.0683 18.5026 28.8866 18.6619 28.6621 18.7324C28.2049 18.8904 27.6972 18.6525 27.5244 18.1953C27.0062 16.7233 25.5842 15.7393 23.999 15.7393C21.9251 15.7393 20.2495 17.3704 20.2383 19.3672V20.709L20.2256 20.7109H28.2314C30.5888 20.7111 32.5 22.5809 32.5 24.8867V29.8242C32.5 32.1301 30.5888 33.9999 28.2314 34H19.7676C17.4112 33.9999 15.5 32.1301 15.5 29.8242V24.8867C15.5 22.9904 16.8004 21.4064 18.5703 20.8975L18.46 20.9111V19.3867C18.4805 16.4161 20.9506 14.0001 23.9785 14ZM23.9951 25.3828C23.5074 25.3828 23.1115 25.7701 23.1113 26.2471V28.4541C23.1115 28.941 23.5075 29.3281 23.9951 29.3281C24.4928 29.328 24.8885 28.9409 24.8887 28.4541V26.2471C24.8885 25.7701 24.4929 25.3829 23.9951 25.3828Z" fill="#1F75FB"/>
</g>
<defs>
<filter id="filter0_d_11647_6947" x="8" y="12" width="32" height="32" filterUnits="userSpaceOnUse" color-interpolation-filters="sRGB">
<feFlood flood-opacity="0" result="BackgroundImageFix"/>
<feColorMatrix in="SourceAlpha" type="matrix" values="0 0 0 0 0 0 0 0 0 0 0 0 0 0 0 0 0 0 127 0" result="hardAlpha"/>
<feOffset dy="4"/>
<feGaussianBlur stdDeviation="2"/>
<feComposite in2="hardAlpha" operator="out"/>
<feColorMatrix type="matrix" values="0 0 0 0 0.945098 0 0 0 0 0.321569 0 0 0 0 0.137255 0 0 0 0.06 0"/>
<feBlend mode="normal" in2="BackgroundImageFix" result="effect1_dropShadow_11647_6947"/>
<feBlend mode="normal" in="SourceGraphic" in2="effect1_dropShadow_11647_6947" result="shape"/>
</filter>
</defs>
</svg>
