<svg width="48" height="48" viewBox="0 0 48 48" fill="none" xmlns="http://www.w3.org/2000/svg">
<rect width="48" height="48" rx="24" fill="#E2E3FA"/>
<g filter="url(#filter0_d_11647_6937)">
<g clip-path="url(#clip0_11647_6937)">
<path d="M16.4479 30.1986C16.4706 30.2945 16.5125 30.3848 16.5711 30.464C16.6296 30.5432 16.7035 30.6098 16.7885 30.6597C16.8734 30.7097 16.9675 30.7419 17.0652 30.7545C17.1629 30.767 17.2622 30.7597 17.357 30.733C21.7036 29.5328 26.2942 29.5324 30.6411 30.7317C30.7359 30.7584 30.8351 30.7657 30.9327 30.7532C31.0304 30.7406 31.1245 30.7084 31.2094 30.6585C31.2943 30.6086 31.3682 30.542 31.4268 30.4629C31.4853 30.3837 31.5272 30.2934 31.5499 30.1976L33.8731 20.325C33.9042 20.1928 33.8978 20.0546 33.8546 19.9259C33.8114 19.7972 33.7331 19.6831 33.6285 19.5965C33.524 19.5099 33.3973 19.4542 33.2628 19.4356C33.1283 19.4171 32.9913 19.4365 32.8672 19.4917L28.2567 21.5408C28.0902 21.6148 27.9021 21.6238 27.7293 21.566C27.5565 21.5082 27.4116 21.3878 27.3232 21.2286L24.6387 16.3965C24.5756 16.2829 24.4832 16.1881 24.3711 16.1222C24.259 16.0563 24.1313 16.0215 24.0013 16.0215C23.8713 16.0215 23.7436 16.0563 23.6315 16.1222C23.5194 16.1881 23.427 16.2829 23.3639 16.3965L20.6794 21.2286C20.591 21.3878 20.4461 21.5082 20.2733 21.566C20.1005 21.6238 19.9124 21.6148 19.7459 21.5408L15.1347 19.4914C15.0106 19.4362 14.8737 19.4168 14.7392 19.4353C14.6047 19.4538 14.478 19.5095 14.3735 19.5961C14.2689 19.6827 14.1906 19.7967 14.1474 19.9254C14.1041 20.0541 14.0977 20.1923 14.1287 20.3244L16.4479 30.1986Z" fill="#8644DD"/>
<path d="M16.4479 30.1986C16.4706 30.2945 16.5125 30.3848 16.5711 30.464C16.6296 30.5432 16.7035 30.6098 16.7885 30.6597C16.8734 30.7097 16.9675 30.7419 17.0652 30.7545C17.1629 30.767 17.2622 30.7597 17.357 30.733C21.7036 29.5328 26.2942 29.5324 30.6411 30.7317C30.7359 30.7584 30.8351 30.7657 30.9327 30.7532C31.0304 30.7406 31.1245 30.7084 31.2094 30.6585C31.2943 30.6086 31.3682 30.542 31.4268 30.4629C31.4853 30.3837 31.5272 30.2934 31.5499 30.1976L33.8731 20.325C33.9042 20.1928 33.8978 20.0546 33.8546 19.9259C33.8114 19.7972 33.7331 19.6831 33.6285 19.5965C33.524 19.5099 33.3973 19.4542 33.2628 19.4356C33.1283 19.4171 32.9913 19.4365 32.8672 19.4917L28.2567 21.5408C28.0902 21.6148 27.9021 21.6238 27.7293 21.566C27.5565 21.5082 27.4116 21.3878 27.3232 21.2286L24.6387 16.3965C24.5756 16.2829 24.4832 16.1881 24.3711 16.1222C24.259 16.0563 24.1313 16.0215 24.0013 16.0215C23.8713 16.0215 23.7436 16.0563 23.6315 16.1222C23.5194 16.1881 23.427 16.2829 23.3639 16.3965L20.6794 21.2286C20.591 21.3878 20.4461 21.5082 20.2733 21.566C20.1005 21.6238 19.9124 21.6148 19.7459 21.5408L15.1347 19.4914C15.0106 19.4362 14.8737 19.4168 14.7392 19.4353C14.6047 19.4538 14.478 19.5095 14.3735 19.5961C14.2689 19.6827 14.1906 19.7967 14.1474 19.9254C14.1041 20.0541 14.0977 20.1923 14.1287 20.3244L16.4479 30.1986Z" stroke="#8644DD" stroke-linecap="round" stroke-linejoin="round"/>
<circle cx="13.7923" cy="18.8958" r="1.45833" fill="#8644DD"/>
<ellipse cx="24.0013" cy="14.5208" rx="1.45833" ry="1.45833" fill="#8644DD"/>
<ellipse cx="34.2083" cy="18.8958" rx="1.45833" ry="1.45833" fill="#8644DD"/>
</g>
</g>
<defs>
<filter id="filter0_d_11647_6937" x="6" y="10" width="36" height="36" filterUnits="userSpaceOnUse" color-interpolation-filters="sRGB">
<feFlood flood-opacity="0" result="BackgroundImageFix"/>
<feColorMatrix in="SourceAlpha" type="matrix" values="0 0 0 0 0 0 0 0 0 0 0 0 0 0 0 0 0 0 127 0" result="hardAlpha"/>
<feOffset dy="4"/>
<feGaussianBlur stdDeviation="2"/>
<feComposite in2="hardAlpha" operator="out"/>
<feColorMatrix type="matrix" values="0 0 0 0 0.0523324 0 0 0 0 0.0362102 0 0 0 0 0.358654 0 0 0 0.06 0"/>
<feBlend mode="normal" in2="BackgroundImageFix" result="effect1_dropShadow_11647_6937"/>
<feBlend mode="normal" in="SourceGraphic" in2="effect1_dropShadow_11647_6937" result="shape"/>
</filter>
<clipPath id="clip0_11647_6937">
<rect width="23.3333" height="23.3333" fill="white" transform="translate(12.334 12.333)"/>
</clipPath>
</defs>
</svg>
