<svg width="48" height="48" viewBox="0 0 48 48" fill="none" xmlns="http://www.w3.org/2000/svg">
<rect width="48" height="48" rx="24" fill="#C1F2F2"/>
<g filter="url(#filter0_d_11647_6943)">
<path d="M33.4274 14.5783C32.9274 14.0673 32.1874 13.8783 31.4974 14.0783L15.4074 18.7273C14.6794 18.9293 14.1634 19.5063 14.0244 20.2383C13.8824 20.9843 14.3784 21.9323 15.0264 22.3283L20.0574 25.4003C20.5734 25.7163 21.2394 25.6373 21.6664 25.2093L27.4274 19.4483C27.7174 19.1473 28.1974 19.1473 28.4874 19.4483C28.7774 19.7373 28.7774 20.2083 28.4874 20.5083L22.7164 26.2693C22.2884 26.6973 22.2084 27.3613 22.5234 27.8783L25.5974 32.9283C25.9574 33.5273 26.5774 33.8683 27.2574 33.8683C27.3374 33.8683 27.4274 33.8683 27.5074 33.8573C28.2874 33.7583 28.9074 33.2273 29.1374 32.4773L33.9074 16.5083C34.1174 15.8283 33.9274 15.0883 33.4274 14.5783Z" fill="#08758B"/>
<path opacity="0.4" d="M20.3916 31.1416C20.6846 30.8499 21.1592 30.8499 21.4521 31.1416C21.7441 31.4346 21.7441 31.9101 21.4521 32.2031L20.0859 33.5674C19.94 33.7143 19.7485 33.788 19.5566 33.7881C19.3646 33.7881 19.1724 33.7144 19.0264 33.5674C18.7336 33.2744 18.7334 32.8007 19.0264 32.5078L20.3916 31.1416ZM19.6074 27.3535C19.9004 27.0615 20.3759 27.0615 20.6689 27.3535C20.9609 27.6465 20.9609 28.122 20.6689 28.415L19.3027 29.7793C19.1567 29.9263 18.9645 30 18.7725 30C18.5805 29.9999 18.3881 29.9262 18.2422 29.7793C17.9497 29.4863 17.9496 29.0126 18.2422 28.7197L19.6074 27.3535ZM15.8467 26.1611C16.1396 25.8694 16.6143 25.8695 16.9072 26.1611C17.1992 26.4541 17.1992 26.9297 16.9072 27.2227L15.541 28.5869C15.3951 28.7339 15.2036 28.8076 15.0117 28.8076C14.8197 28.8076 14.6274 28.7339 14.4814 28.5869C14.1887 28.2939 14.1885 27.8203 14.4814 27.5273L15.8467 26.1611Z" fill="#08758B"/>
</g>
<defs>
<filter id="filter0_d_11647_6943" x="8" y="12" width="32" height="32" filterUnits="userSpaceOnUse" color-interpolation-filters="sRGB">
<feFlood flood-opacity="0" result="BackgroundImageFix"/>
<feColorMatrix in="SourceAlpha" type="matrix" values="0 0 0 0 0 0 0 0 0 0 0 0 0 0 0 0 0 0 127 0" result="hardAlpha"/>
<feOffset dy="4"/>
<feGaussianBlur stdDeviation="2"/>
<feComposite in2="hardAlpha" operator="out"/>
<feColorMatrix type="matrix" values="0 0 0 0 0.0391494 0 0 0 0 0.404263 0 0 0 0 0.515385 0 0 0 0.06 0"/>
<feBlend mode="normal" in2="BackgroundImageFix" result="effect1_dropShadow_11647_6943"/>
<feBlend mode="normal" in="SourceGraphic" in2="effect1_dropShadow_11647_6943" result="shape"/>
</filter>
</defs>
</svg>
