<svg width="28" height="29" viewBox="0 0 28 29" fill="none" xmlns="http://www.w3.org/2000/svg">
<g filter="url(#filter0_d_9370_13535)">
<path d="M21.1699 4.2195C21.4626 3.93399 21.9221 3.93399 22.205 4.2195C22.4976 4.50496 22.4975 4.97795 22.205 5.26345L20.4287 7.05544C21.8434 8.35492 23.0437 10.107 23.9413 12.2136C24.0194 12.4007 24.0194 12.6175 23.9413 12.7947C21.8533 17.6974 18.136 20.6315 13.999 20.6316H13.9892C12.106 20.6316 10.3004 20.0109 8.7099 18.8787L6.81732 20.7888C6.67096 20.9365 6.48514 21.0056 6.29975 21.0056C6.11445 21.0056 5.91967 20.9364 5.78314 20.7888C5.53927 20.5428 5.50027 20.1495 5.69525 19.864L5.72455 19.824L20.1552 5.26345C20.1747 5.24376 20.1943 5.22357 20.204 5.20388C20.2235 5.18426 20.2431 5.1649 20.2529 5.14528L21.1699 4.2195ZM14.0009 4.39138C15.3962 4.39138 16.7529 4.72614 18.0019 5.35622L14.7431 8.64431C14.5089 8.60493 14.2546 8.57497 14.0009 8.57497C11.8447 8.57516 10.0986 10.3378 10.0986 12.5134C10.0986 12.7693 10.1279 13.0253 10.1669 13.2615L6.55658 16.9041C5.58084 15.762 4.73179 14.3837 4.05854 12.7986C3.98049 12.6214 3.98048 12.4046 4.05854 12.2175C6.14658 7.31498 9.86399 4.39154 13.9912 4.39138H14.0009ZM16.1552 11.367C16.3308 11.7017 16.4287 12.096 16.4287 12.5095C16.4285 13.8581 15.3355 14.9605 13.999 14.9607C13.5893 14.9607 13.1988 14.8624 12.8671 14.6853L11.8037 15.7586C12.428 16.1817 13.1893 16.4373 13.999 16.4373C16.1454 16.4371 17.8914 14.6752 17.8915 12.5095C17.8915 11.6924 17.6383 10.9238 17.2187 10.2937L16.1552 11.367Z" fill="#8644DD"/>
</g>
<defs>
<filter id="filter0_d_9370_13535" x="-2" y="0.505859" width="32" height="32" filterUnits="userSpaceOnUse" color-interpolation-filters="sRGB">
<feFlood flood-opacity="0" result="BackgroundImageFix"/>
<feColorMatrix in="SourceAlpha" type="matrix" values="0 0 0 0 0 0 0 0 0 0 0 0 0 0 0 0 0 0 127 0" result="hardAlpha"/>
<feOffset dy="4"/>
<feGaussianBlur stdDeviation="2"/>
<feComposite in2="hardAlpha" operator="out"/>
<feColorMatrix type="matrix" values="0 0 0 0 0.0523324 0 0 0 0 0.0362102 0 0 0 0 0.358654 0 0 0 0.06 0"/>
<feBlend mode="normal" in2="BackgroundImageFix" result="effect1_dropShadow_9370_13535"/>
<feBlend mode="normal" in="SourceGraphic" in2="effect1_dropShadow_9370_13535" result="shape"/>
</filter>
</defs>
</svg>
